<?xml version="1.0" encoding="UTF-8" standalone="no"?>
<svg
   version="1.1"
   id="Layer_1"
   x="0px"
   y="0px"
   viewBox="0 0 2605.55 1140.037"
   enable-background="new 0 0 2605.55 1140.037"
   xml:space="preserve"
   sodipodi:docname="logo.svg"
   inkscape:export-filename="/home/lexx/code/evmos/evmos-balancer/packages/balancer-frontend/src/assets/images/logo.png"
   inkscape:export-xdpi="1.8750002"
   inkscape:export-ydpi="1.8750002"
   inkscape:version="1.1.1 (eb90963e84, 2021-10-02)"
   xmlns:inkscape="http://www.inkscape.org/namespaces/inkscape"
   xmlns:sodipodi="http://sodipodi.sourceforge.net/DTD/sodipodi-0.dtd"
   xmlns="http://www.w3.org/2000/svg"
   xmlns:svg="http://www.w3.org/2000/svg"><defs
   id="defs97" /><sodipodi:namedview
   id="namedview95"
   pagecolor="#ffffff"
   bordercolor="#666666"
   borderopacity="1.0"
   inkscape:pageshadow="2"
   inkscape:pageopacity="0.0"
   inkscape:pagecheckerboard="0"
   showgrid="false"
   inkscape:zoom="0.22701541"
   inkscape:cx="1112.2593"
   inkscape:cy="702.59548"
   inkscape:window-width="1848"
   inkscape:window-height="1016"
   inkscape:window-x="0"
   inkscape:window-y="0"
   inkscape:window-maximized="1"
   inkscape:current-layer="g92" />
<g
   id="g92">
	<path
   d="M1303.457,570.645c12.348-16.972,82.184-109.477,173.832-207.722c236.692-252.79,526.938-441.648,835.187-280.234   c181.31,95.165,295.468,273.837,265.549,478.869c-8.479-50.323-21.411-131.704-88.292-228.065   c-82.825-120.236-267.295-231.421-458.571-208.147c-243.629,29.2-498.681,276.361-711.948,433.774   C1309.008,566.707,1303.457,570.645,1303.457,570.645z"
   id="path84"
   style="fill:#ffffff"
   inkscape:export-filename="/home/lexx/code/evmos/evmos-balancer/packages/balancer-frontend/src/assets/images/text7815.png"
   inkscape:export-xdpi="1.8750002"
   inkscape:export-ydpi="1.8750002" />
	<path
   d="M27.373,569.524c52.517,315.938,318.881,502.198,622.023,428.729c-0.211,0.068,1.258-0.341-0.333,0.117   c242.842-70.833,447.925-281.451,654.393-427.726c-95.228,131.019-273.616,327.626-415.961,420.672   c-97.184,64.721-179.452,102.245-291.278,119.017C281.031,1157.423-18.092,882.988,27.373,569.524z"
   id="path86"
   style="fill:#ffffff"
   inkscape:export-filename="/home/lexx/code/evmos/evmos-balancer/packages/balancer-frontend/src/assets/images/text7815.png"
   inkscape:export-xdpi="1.8750002"
   inkscape:export-ydpi="1.8750002" />
	<path
   d="M1303.457,570.639c-217.712-156.899-516.809-467.394-821.171-443.741C270.453,143.372,72.772,304.277,27.373,569.524   C-32.77,148.01,604.838-403.868,1303.457,570.639z"
   id="path88"
   style="fill:#ffffff;fill-opacity:1"
   inkscape:export-filename="/home/lexx/code/evmos/evmos-balancer/packages/balancer-frontend/src/assets/images/text7815.png"
   inkscape:export-xdpi="1.8750002"
   inkscape:export-ydpi="1.8750002" />
	<path
   d="M2578.025,561.557c47.085,351.301-323.027,736.854-808.538,462.699c0.506,0.283-1.328-0.744-1.329-0.756   c-76.828-46.879-144.755-97.899-221.198-171.976c-104.473-102.444-199.102-218.951-243.495-280.876   c152.379,109.911,350.207,301.534,566.411,397.127c371.575,159.153,653.559-83.789,707.277-401.253   C2577.729,563.247,2578.025,561.557,2578.025,561.557z"
   id="path90"
   style="fill:#ffffff"
   inkscape:export-filename="/home/lexx/code/evmos/evmos-balancer/packages/balancer-frontend/src/assets/images/text7815.png"
   inkscape:export-xdpi="1.8750002"
   inkscape:export-ydpi="1.8750002" />
<text
   xml:space="preserve"
   style="font-style:normal;font-weight:normal;font-size:666.667px;line-height:1.25;font-family:sans-serif;fill:#ffffff;fill-opacity:1;stroke:none"
   x="-657.90027"
   y="1721.2745"
   id="text7815"
   inkscape:export-filename="/home/lexx/code/evmos/evmos-balancer/packages/balancer-frontend/src/assets/images/text7815.png"
   inkscape:export-xdpi="1.8750002"
   inkscape:export-ydpi="1.8750002"><tspan
     sodipodi:role="line"
     id="tspan7813"
     x="-657.90027"
     y="1721.2745"
     style="font-style:normal;font-variant:normal;font-weight:normal;font-stretch:normal;font-size:666.667px;font-family:monospace;-inkscape-font-specification:monospace;fill:#ffffff">Metalancer</tspan></text></g>
</svg>
